<svg width="16" height="16" viewBox="0 0 16 16" fill="none" xmlns="http://www.w3.org/2000/svg">
<path d="M14.001 13.2921C14.9915 12.1694 15.6471 10.7912 15.8931 9.3143C16.1392 7.83741 15.9659 6.32111 15.3928 4.93786C14.8198 3.5546 13.8701 2.35991 12.6518 1.48966C11.4334 0.619413 9.99528 0.108537 8.50095 0.0151367V7.79314L14.001 13.2931V13.2921ZM13.293 14.0001L8.50095 9.20614V15.9841C10.2751 15.8752 11.9619 15.1762 13.293 13.9981V14.0001ZM7.50095 15.9851V9.20714L2.70895 14.0001C4.04015 15.1778 5.72692 15.8765 7.50095 15.9851ZM2.00095 13.2921C1.01042 12.1694 0.354839 10.7912 0.108777 9.3143C-0.137284 7.83741 0.036049 6.32111 0.609063 4.93786C1.18208 3.5546 2.13177 2.35991 3.35013 1.48966C4.5685 0.619413 6.00663 0.108537 7.50095 0.0151367V7.79314L2.00095 13.2931V13.2921Z" fill="#E8009B"/>
</svg>
